<?xml version="1.0" encoding="UTF-8"?>
<svg width="142px" height="114px" viewBox="0 0 142 114" version="1.1" xmlns="http://www.w3.org/2000/svg" xmlns:xlink="http://www.w3.org/1999/xlink">
    <!-- Generator: Sketch 55.2 (78181) - https://sketchapp.com -->
    <title>arrow-right</title>
    <desc>Created with Sketch.</desc>
    <g id="Page-46" stroke="none" stroke-width="1" fill="none" fill-rule="evenodd">
        <g id="Brandbook-setup-20200604" transform="translate(-1006.000000, -474.000000)" fill="#0A0B09">
            <g id="arrow-right" transform="translate(1077.000000, 530.500000) rotate(90.000000) translate(-1077.000000, -530.500000) translate(1020.000000, 459.000000)">
                <polygon id="Fill-3877" points="51.8621 142.0281 55.3981 0.5911 58.9341 0.5911 62.4701 142.0281"></polygon>
                <g id="Group-3882-Copy">
                    <path d="M71.2307,43.0938 C83.0947,53.5398 98.4797,58.9668 113.7257,58.9438728 C113.7337,58.9438728 113.7407,58.9428 113.7477,58.9428 L113.7477,55.4028 L113.7257,55.4028 C99.3007,55.4798 85.2537,48.7268 76.2127,38.1128 C67.0667,27.5238 62.4407,14.0108 62.4517,0.5988 C62.4517,0.5688 62.4567,0.5378 62.4567,0.5068 L51.8557,0.5068 C51.8557,0.5378 51.8507,0.5688 51.8507,0.5988 C51.9177,8.6868 53.6367,16.7828 57.0257,24.0868 C60.4027,31.3948 65.3247,37.8818 71.2307,43.0938" id="Fill-3878"></path>
                    <path d="M43.1167,43.0938 C31.2537,53.5398 15.8687,58.9668 0.6217,58.9438728 C0.6147,58.9438728 0.6077,58.9428 0.5997,58.9428 L0.5997,55.4028 L0.6217,55.4028 C15.0467,55.4798 29.0947,48.7268 38.1357,38.1128 C47.2817,27.5238 51.9077,14.0108 51.8957,0.5988 C51.8957,0.5688 51.8917,0.5378 51.8907,0.5068 L62.4927,0.5068 C62.4927,0.5378 62.4977,0.5688 62.4977,0.5988 C62.4297,8.6868 60.7117,16.7828 57.3217,24.0868 C53.9447,31.3948 49.0227,37.8818 43.1167,43.0938" id="Fill-3880"></path>
                </g>
            </g>
        </g>
    </g>
</svg>