<?xml version="1.0" encoding="UTF-8"?>
<svg width="410px" height="410px" viewBox="0 0 410 410" version="1.1" xmlns="http://www.w3.org/2000/svg" xmlns:xlink="http://www.w3.org/1999/xlink">
    <!-- Generator: Sketch 55.2 (78181) - https://sketchapp.com -->
    <title>close</title>
    <desc>Created with Sketch.</desc>
    <g id="Page-1" stroke="none" stroke-width="1" fill="none" fill-rule="evenodd">
        <g id="close" fill="#FFFFFF" fill-rule="nonzero">
            <path d="M228.929,205.01 L404.596,29.343 C411.376,22.795 411.564,11.991 405.016,5.211 C398.468,-1.569 387.664,-1.757 380.884,4.791 C380.742,4.928 380.602,5.068 380.464,5.211 L204.796,180.878 L29.129,5.21 C22.349,-1.338 11.545,-1.15 4.997,5.63 C-1.391,12.244 -1.391,22.729 4.997,29.343 L180.664,205.01 L4.997,380.677 C-1.666,387.341 -1.666,398.145 4.997,404.809 C11.661,411.471 22.465,411.471 29.129,404.809 L204.796,229.142 L380.463,404.809 C387.243,411.357 398.047,411.169 404.595,404.389 C410.982,397.775 410.982,387.29 404.595,380.677 L228.929,205.01 Z" id="Path"></path>
        </g>
    </g>
</svg>