<?xml version="1.0" encoding="UTF-8"?>
<svg width="117px" height="117px" viewBox="0 0 117 117" version="1.1" xmlns="http://www.w3.org/2000/svg" xmlns:xlink="http://www.w3.org/1999/xlink">
    <!-- Generator: Sketch 55.2 (78181) - https://sketchapp.com -->
    <title>contract</title>
    <desc>Created with Sketch.</desc>
    <g id="Page-24" stroke="none" stroke-width="1" fill="none" fill-rule="evenodd">
        <g id="Brandbook-setup-20200604" transform="translate(-976.000000, -669.000000)">
            <g id="contract" transform="translate(976.554400, 669.800600)">
                <rect id="Rectangle" fill="#E8E8E3" x="0" y="0" width="116" height="116"></rect>
                <g transform="translate(33.445600, 25.199400)" fill="#9B9B99" fill-rule="nonzero">
                    <path d="M39.0448216,18 L7.9550516,18 C7.42756692,18 7,18.4476899 7,19 C7,19.5523101 7.42756692,20 7.9550516,20 L39.0449484,20 C39.5724331,20 40,19.5523101 40,19 C40,18.4476899 39.5723063,18 39.0448216,18 Z" id="Path"></path>
                    <path d="M7.98487556,13 L24.0151244,13 C24.5590812,13 25,12.5523101 25,12 C25,11.4476899 24.5590812,11 24.0151244,11 L7.98487556,11 C7.4409188,11 7,11.4476899 7,12 C7,12.5524429 7.4409188,13 7.98487556,13 Z" id="Path"></path>
                    <path d="M39.0448216,24 L7.9550516,24 C7.42756692,24 7,24.4476899 7,25 C7,25.5523101 7.42756692,26 7.9550516,26 L39.0449484,26 C39.5724331,26 40,25.5523101 40,25 C40,24.4476899 39.5723063,24 39.0448216,24 Z" id="Path"></path>
                    <path d="M14.9587919,59.0644976 L4.91694395,59.0644976 C3.2687484,59.0644976 1.92769388,57.7181393 1.92769388,56.0632674 L1.92769388,4.93686109 C1.92769388,3.28198917 3.2687484,1.93550242 4.91694395,1.93550242 L33.8465575,1.93550242 C33.9399795,1.93550242 34.0319939,1.94411151 34.1229844,1.95644691 L34.1229844,7.99231565 C34.1229844,10.7145857 36.3287689,12.9291767 39.0399283,12.9291767 L45.0513181,12.9291767 C45.0637318,13.0206643 45.0721781,13.1130514 45.0721781,13.2068519 L45.0721781,29.6875978 C45.0721781,30.2221321 45.5037113,30.6554133 46.0360891,30.6554133 C46.5684669,30.6554133 47,30.2221321 47,29.6875978 L47,13.2069804 C47,12.1453644 46.5881751,11.1472244 45.8405426,10.396435 L36.6455081,1.16415402 C35.8978756,0.413493115 34.9038905,-1.13686838e-13 33.8465575,-1.13686838e-13 L4.91694395,-1.13686838e-13 C2.20565651,-1.13686838e-13 0,2.21471949 0,4.93686109 L0,56.0632674 C0,58.785409 2.20578449,61 4.91694395,61 L14.9587919,61 C15.4911697,61 15.9227028,60.5667188 15.9227028,60.0321845 C15.9227028,59.4976502 15.4911697,59.0644976 14.9587919,59.0644976 Z M43.7091119,10.9936743 L39.0400563,10.9936743 C37.3918608,10.9936743 36.0508062,9.64718757 36.0508062,7.99231565 L36.0508062,3.30434709 L43.7091119,10.9936743 Z" id="Shape"></path>
                    <path d="M57.7080358,47.7523068 L49.6496871,34.0325505 C49.0624017,33.0322259 47.7842889,32.7015864 46.7920531,33.2944704 L44.8319518,34.4658462 C43.3105151,35.3749775 42.6674181,37.2147647 43.1898003,38.8451639 C42.5294041,39.0865205 41.8053674,39.0826996 41.1386577,38.8227476 C39.591083,38.3316283 38.4144919,37.3436581 36.4713109,37.8393626 C33.1718554,38.6867218 33.2721144,38.6443093 32.9736102,38.7474749 C31.0416673,37.6379985 29.8803549,37.3078685 27.8294649,38.1081027 L26.0013166,38.8209645 C25.1549235,39.1508398 24.2222875,39.0726377 23.4401663,38.6052082 L22.9412705,38.3085752 C23.1847205,36.8372549 22.5378353,35.2845483 21.1680499,34.4661009 C21.1680499,34.4661009 21.1680499,34.4661009 21.1679236,34.4659735 L19.2079486,33.2947251 C18.2184908,32.7036242 16.9365898,33.0345185 16.3504408,34.0325505 L8.29183964,47.7524342 C7.70455424,48.7525041 8.03134302,50.0420746 9.02332627,50.6347039 L10.9833013,51.8059523 C11.5763952,52.160409 12.2282049,52.3289129 12.8721859,52.3289129 C13.5902878,52.3289129 14.2982881,52.1190154 14.9036302,51.7236745 L15.3121162,51.9668143 L14.4496868,53.1784374 C13.4219689,54.6225016 13.7485051,56.630538 15.1804158,57.667289 C15.8425798,58.1466908 16.6744517,58.3656312 17.5347345,58.2293506 C17.6712332,59.03417 18.1083826,59.7874065 18.8162566,60.300178 C19.4810723,60.7816176 20.3091561,61.0008127 21.1709541,60.8638954 C21.3078317,61.6680779 21.7447286,62.4206776 22.4522238,62.933067 C23.4030427,63.6214747 24.5851898,63.7010778 25.5702281,63.2766977 C25.7857724,63.841434 26.1604178,64.3514034 26.6830525,64.7299322 C28.0477871,65.7179024 29.9277065,65.460243 30.9881285,64.1802249 L33.2799432,65.5496532 C34.7955713,66.4556004 36.7511269,65.9521266 37.6497961,64.4215816 C37.8796089,64.0303163 38.0221686,63.6038983 38.0743184,63.1656354 L38.0794955,63.1688195 C39.5928508,64.0728562 41.5528259,63.5667078 42.4493484,62.0406205 C42.7089611,61.5985366 42.8512683,61.1190075 42.8858665,60.6384594 C44.219791,60.9767408 45.6735465,60.4116223 46.4097052,59.1583509 C46.6512612,58.7472167 46.7912955,58.303095 46.8373843,57.8561712 C48.2670221,58.4220539 49.9379633,57.8751486 50.7453387,56.5006257 C51.1795839,55.7612719 51.3024454,54.8956995 51.0911943,54.0631146 C50.9703532,53.5867695 50.7481166,53.1543654 50.4430464,52.78921 L51.7062593,52.0447616 C52.7748889,52.4872276 53.9944121,52.4164127 55.0164478,51.8058249 L56.9761703,50.6345765 C57.9681536,50.0423293 58.2958263,48.7530135 57.7080358,47.7523068 L57.7080358,47.7523068 Z M11.9528084,50.1554294 L9.99283332,48.9840536 C9.90570648,48.9319614 9.87679047,48.8180971 9.92830895,48.7302152 L17.9869101,35.0100768 C18.0388074,34.9218128 18.1520723,34.8931557 18.2386941,34.9451206 L20.1985429,36.1162417 C21.0694324,36.6367824 21.3419248,37.763453 20.8353264,38.6258414 L14.4408478,49.5130004 C13.9304613,50.3821391 12.8144802,50.6701113 11.9528084,50.1554294 L11.9528084,50.1554294 Z M16.2895783,56.1087236 C15.7120158,55.690457 15.5799365,54.880161 15.9948623,54.2973388 L17.2624947,52.5162668 C17.6663086,51.9488558 18.4710323,51.7935979 19.0583177,52.2188696 C19.6347438,52.6362446 19.7669493,53.4487059 19.3532863,54.030127 L18.0855276,55.811199 C17.6717383,56.3928749 16.8657519,56.5258439 16.2895783,56.1087236 L16.2895783,56.1087236 Z M19.9255454,58.74174 C19.3491193,58.3242376 19.2169138,57.5115216 19.6307032,56.9302278 L20.8983355,55.1492832 C20.8983355,55.1492832 20.8983355,55.1492832 20.8983355,55.1491558 C20.8983355,55.1491558 20.8983355,55.1490284 20.8984618,55.1490284 L22.2974158,53.183532 C22.4979338,52.901928 22.7950489,52.7157204 23.1342122,52.6596798 C23.2046713,52.6479622 23.2752567,52.6422308 23.345337,52.6422308 C23.6122734,52.6422308 23.8720124,52.7260369 24.0932388,52.8861347 C24.3722972,53.0883903 24.5569051,53.3879528 24.6124643,53.7300551 C24.6681497,54.0722848 24.5884728,54.4157882 24.3879548,54.6973922 L21.7212422,58.4442154 C21.3068215,59.0269102 20.5033605,59.1602613 19.9255454,58.74174 L19.9255454,58.74174 Z M23.5615126,61.3745016 C22.985339,60.9572539 22.8530072,60.1451748 23.2660389,59.563881 C23.2661652,59.5636262 23.2664177,59.5633715 23.266544,59.5631168 L25.9332566,55.816421 C26.3467934,55.2351272 27.1529061,55.1016487 27.7290797,55.5188964 C28.3055058,55.9362714 28.4377113,56.74886 28.0239219,57.3302812 L26.8391232,58.9950689 C26.8391232,58.9950689 26.8391232,58.9950689 26.8389969,58.9951963 L25.3572093,61.0771044 C24.94342,61.6585255 24.1380649,61.7921314 23.5615126,61.3745016 L23.5615126,61.3745016 Z M27.7923413,63.1713668 C27.216294,62.7541192 27.083836,61.9424221 27.4966152,61.3610009 L28.3841725,60.1140977 C28.7978355,59.5325492 29.6038219,59.3995801 30.1799955,59.8167005 C30.7562953,60.2339482 30.8886271,61.0466641 30.4748378,61.6280853 L29.5880381,62.8738422 C29.174375,63.4553908 28.3685149,63.5888693 27.7923413,63.1713668 L27.7923413,63.1713668 Z M49.1092482,55.5228447 C48.7473561,56.1389091 47.956396,56.3432026 47.3454979,55.9783019 C46.3110877,55.3601996 39.6384346,51.372784 38.927025,50.9476396 C38.4749756,50.6776259 37.8917309,50.8280439 37.6240368,51.2838832 C37.3563428,51.7397225 37.5054686,52.3281487 37.9573917,52.5981625 L44.3218178,56.4014084 L44.3219441,56.4015357 C44.9329684,56.7665638 45.1367694,57.5619581 44.7734884,58.1806972 C44.4114701,58.7970164 43.6201311,59.0009277 43.0094856,58.6362818 C40.6555457,57.2296629 38.7441849,56.0874537 36.6416501,54.8309981 C36.1894745,54.5609843 35.606356,54.7114023 35.338662,55.1672416 C35.0709679,55.6230809 35.2200937,56.2115072 35.6720168,56.4815209 L40.3614611,59.2838054 L40.3624712,59.2844422 C40.9738743,59.6506165 41.1756551,60.4456288 40.8131316,61.0630942 C40.4511133,61.6794134 39.6600269,61.8835795 39.0490026,61.5185514 L36.5322996,60.014753 C36.5320471,60.0146257 36.5316683,60.0144983 36.5314158,60.0142436 C36.5311632,60.0141162 36.5309107,60.0139888 36.5306581,60.0138615 L34.6940496,58.91623 C34.2420002,58.6460889 33.6587555,58.7965069 33.3910614,59.2524736 C33.1233674,59.7083129 33.2724932,60.2967391 33.7244163,60.5667529 L35.5614036,61.6645117 C35.5616562,61.6646391 35.5619087,61.6648938 35.5621612,61.6650212 C36.1731856,62.0300492 36.3769866,62.8253162 36.0137056,63.4440553 C35.6516872,64.0603745 34.8606008,64.2645405 34.2495765,63.8995125 L32.1066351,62.6191123 C33.025255,61.1893129 32.6758637,59.2625354 31.2892843,58.2586446 C30.882061,57.963922 30.4286227,57.7803891 29.9648301,57.7015501 C30.4567811,56.3747891 30.0326375,54.8257761 28.8382422,53.9609678 C28.1311258,53.4487059 27.2844802,53.2717959 26.4854387,53.398142 C26.3432578,52.5594435 25.8885568,51.8248023 25.2025276,51.3282062 C23.9122928,50.3942388 22.1588967,50.573696 21.0758722,51.678842 C20.8557823,51.2889778 20.5519748,50.9392335 20.1676065,50.660941 C19.0954413,49.8847788 17.7034322,49.877519 16.6420001,50.5312835 L16.2062396,50.271841 L22.1876865,40.0878641 L22.4724271,40.2572595 C23.730084,41.0087129 25.2647791,41.1653718 26.6870932,40.61057 L28.5152415,39.8977081 C29.561395,39.4898854 30.1383261,39.4632662 31.1731152,39.9557866 C30.4960513,40.7230332 30.0941314,41.7303629 30.0941314,42.8160221 L30.0941314,47.0693758 C30.0941314,48.1991032 31.00467,49.1188058 32.1238079,49.11957 L32.1265859,49.11957 C33.2491331,49.11957 34.3047568,48.6787598 35.0988738,47.8782708 C35.5617824,47.4116055 35.9034712,46.8552752 36.1082824,46.247999 C37.3362657,46.9814939 47.4817441,53.0413926 48.6579564,53.74432 C48.9538088,53.9211026 49.1636709,54.2034708 49.2489037,54.5394596 C49.3341364,54.8750664 49.284512,55.2244285 49.1092482,55.5228447 L49.1092482,55.5228447 Z M56.0071684,48.9840536 L54.047067,50.1554294 C53.1853952,50.669984 52.0694141,50.381757 51.5592801,49.5131278 L48.5621169,44.4102496 C48.2942966,43.9544103 47.710673,43.8039923 47.2591287,44.0737513 C46.8072056,44.3437651 46.6579535,44.9321913 46.9255213,45.3880306 L49.9226845,50.4910362 C49.9791276,50.5870694 50.0403689,50.67839 50.1037568,50.7674182 L49.270496,51.2584102 C49.1020507,51.3590285 48.9400453,51.4698361 48.7851111,51.590196 L35.864706,43.8725146 C35.2317106,43.4946227 34.4291335,43.9553019 34.4291335,44.6978397 C34.4191581,44.755154 34.5273722,45.7412137 33.7542162,46.5208148 C33.3193396,46.9590777 32.741272,47.2005617 32.1264596,47.2005617 C32.1259545,47.2005617 32.1254494,47.2005617 32.1249443,47.2005617 C32.0538539,47.2005617 31.9960219,47.1414644 31.9960219,47.0688663 L31.9960219,42.8155126 C31.9960219,41.7043805 32.7538991,40.7669742 33.778839,40.5052391 L36.9376289,39.6988914 C38.0837887,39.4067161 38.7316841,40.0240542 40.4478303,40.6099331 C41.6391951,41.0748153 42.934607,41.0461582 44.0844287,40.5508358 L44.6584557,41.5282347 C44.926276,41.9843287 45.509647,42.1346194 45.9614439,41.864733 C46.413367,41.5947192 46.5626191,41.006293 46.2950513,40.5504537 L45.1644227,38.6255866 C44.6528998,37.7546649 44.937893,36.6323246 45.8012063,36.1161143 L47.7611813,34.9449933 C47.8467929,34.8936652 47.9600578,34.9199024 48.0130915,35.0100768 L56.0714402,48.7299605 C56.1234638,48.8184791 56.0948003,48.9317066 56.0071684,48.9840536 L56.0071684,48.9840536 Z" id="Shape"></path>
                </g>
            </g>
        </g>
    </g>
</svg>