<svg version="1.1" xmlns="http://www.w3.org/2000/svg" xmlns:xlink="http://www.w3.org/1999/xlink" x="0px" y="0px"
	 viewBox="0 0 322.08 330" enable-background="new 0 0 322.08 330" xml:space="preserve">
<g>
	<polygon points="31.91,0 25.09,165 56.93,165 50.11,0 	"/>
	<polygon points="83.05,0 76.23,165 108.07,165 101.25,0 	"/>
	<polygon points="134.19,0 127.37,165 159.21,165 152.39,0 	"/>
	<polygon points="184.37,0 177.54,165 209.39,165 202.56,0 	"/>
	<polygon points="235.51,0 228.68,165 260.53,165 253.7,0 	"/>
	<polygon points="286.65,0 279.83,165 311.67,165 304.84,0 	"/>
	<polygon points="6.82,165 0,330 31.84,330 25.02,165 	"/>
	<polygon points="57.96,165 51.14,330 82.98,330 76.16,165 	"/>
	<polygon points="108.14,165 101.32,330 133.16,330 126.33,165 	"/>
	<polygon points="159.28,165 152.46,330 184.3,330 177.47,165 	"/>
	<polygon points="210.42,165 203.6,330 235.44,330 228.62,165 	"/>
	<polygon points="260.6,165 253.77,330 285.61,330 278.79,165 	"/>
	<polygon points="311.73,165 304.91,330 336.75,330 329.93,165 	"/>
</g>
</svg>
