<?xml version="1.0" encoding="UTF-8"?>
<svg width="117px" height="117px" viewBox="0 0 117 117" version="1.1" xmlns="http://www.w3.org/2000/svg" xmlns:xlink="http://www.w3.org/1999/xlink">
    <!-- Generator: Sketch 55.2 (78181) - https://sketchapp.com -->
    <title>issues</title>
    <desc>Created with Sketch.</desc>
    <g id="Page-24" stroke="none" stroke-width="1" fill="none" fill-rule="evenodd">
        <g id="Brandbook-setup-20200604" transform="translate(-976.000000, -669.000000)">
            <g id="issues" transform="translate(976.554400, 669.800600)">
                <rect id="Rectangle" fill="#E8E8E3" x="0" y="0" width="116" height="116"></rect>
                <g id="paper" transform="translate(28.445600, 28.199400)" fill="#9B9B99" fill-rule="nonzero">
                    <path d="M59.5062883,7.35209017 C59.4706632,7.31824502 52.4228792,0.530871868 52.4228792,0.530871868 C52.1534647,0.269814503 51.8747924,0 51.3544791,0 L22.980999,0 C22.1522477,0 21.4779498,0.68080826 21.4779498,1.51770658 L21.4779498,6.17827875 L11.4777395,7.90935179 C10.6761758,8.05135943 10.1371125,8.82601106 10.2759799,9.63462619 L10.7835197,12.6229401 C7.53308512,13.7275229 4.19593166,14.8661874 0.974325252,16.0347919 C0.213074107,16.3158486 -0.186418681,17.1706163 0.0852223524,17.9439662 L6.49363043,35.9334931 C6.62253687,36.2954942 6.96038894,36.5209313 7.32074105,36.5209313 C7.41941307,36.5209313 7.5199601,36.5040088 7.61816337,36.4682702 C8.07496093,36.3023579 8.3120316,35.7939706 8.14773448,35.3326825 L1.83413123,17.6091832 C4.86929205,16.5118192 8.0124999,15.4377681 11.0843405,14.393657 L14.1043841,32.1736043 L17.5794674,52.6501583 C17.7049754,53.3729771 18.334156,53.8872814 19.0443134,53.8872814 C19.1247041,53.8872814 19.2062667,53.8806544 19.2880637,53.8670454 L28.7001091,52.2359694 L36.0548077,50.9628709 L24.9933458,54.9777817 L16.2704811,58.144907 L9.49609588,39.1171859 C9.33191595,38.6558978 8.82859488,38.4164966 8.37168013,38.5822905 C7.91488257,38.7480844 7.6778119,39.2564717 7.84199183,39.7177598 L14.7124709,59.0158871 C14.9321978,59.6227331 15.5014955,60 16.1032543,60 C16.2695436,60 16.438411,59.9711251 16.6029425,59.9104169 L25.5878388,56.6482648 L45.9895101,49.2432768 L49.8870551,48.5686222 L58.4969508,48.5686222 C59.3257021,48.5686222 60,47.8862756 60,47.0474838 L60,8.35217893 C60,7.82095204 59.714648,7.54995414 59.5062883,7.35209017 Z M57.177652,7.56226147 L52.7795985,7.56226147 L52.6706139,7.56273483 C52.4600277,7.56415491 51.9670191,7.56782344 51.8419799,7.44238336 C51.8131517,7.41339014 51.7794017,7.31658827 51.7794017,7.13683027 L51.7692063,2.35413153 L57.177652,7.56226147 Z M58.242302,46.7932901 L23.235765,46.7932901 L23.235765,29.4959321 C23.235765,29.0057691 22.8422488,28.6083844 22.3568574,28.6083844 C21.8714661,28.6083844 21.4779498,29.0057691 21.4779498,29.4959321 L21.4779498,47.0472471 C21.4779498,47.8859205 22.1522477,48.5683856 22.980999,48.5683856 L39.48243,48.5683856 L28.4029212,50.4861986 L19.2643918,52.0699388 L15.8368867,31.8734949 L12.0553575,9.61024822 L21.4778327,7.97917221 L21.4778327,25.3777107 C21.4778327,25.8678737 21.8713489,26.2652584 22.3567402,26.2652584 C22.8421316,26.2652584 23.2356478,25.8678737 23.2356478,25.3777107 L23.2356478,1.77497707 L50.0101021,1.77497707 L50.0215865,7.13884205 C50.0215865,7.78900033 50.2174071,8.31490193 50.6035405,8.70210941 C51.1968617,9.29700305 52.0355739,9.33842194 52.5562388,9.33842194 C52.6010045,9.33842194 52.6434264,9.33806692 52.683153,9.33783024 L58.242302,9.33747522 L58.242302,46.7932901 Z" id="Shape"></path>
                    <path d="M27,14 C27,14.5522667 27.395169,15 27.8825991,15 L53.1174009,15 C53.604831,15 54,14.5522667 54,14 C54,13.4477333 53.604831,13 53.1174009,13 L27.8825991,13 C27.395169,13 27,13.4477333 27,14 Z" id="Path"></path>
                    <path d="M53.1174009,19 L27.8825991,19 C27.395169,19 27,19.4477333 27,20 C27,20.5522667 27.395169,21 27.8825991,21 L53.1174009,21 C53.604831,21 54,20.5522667 54,20 C54,19.4477333 53.604831,19 53.1174009,19 Z" id="Path"></path>
                    <path d="M53.1174009,25 L27.8825991,25 C27.395169,25 27,25.4477333 27,26 C27,26.5522667 27.395169,27 27.8825991,27 L53.1174009,27 C53.604831,27 54,26.5522667 54,26 C54,25.4477333 53.604831,25 53.1174009,25 Z" id="Path"></path>
                    <path d="M53.1174009,32 L27.8825991,32 C27.395169,32 27,32.4477333 27,33 C27,33.5522667 27.395169,34 27.8825991,34 L53.1174009,34 C53.604831,34 54,33.5522667 54,33 C54,32.4477333 53.604831,32 53.1174009,32 Z" id="Path"></path>
                    <path d="M53.1174009,38 L27.8825991,38 C27.395169,38 27,38.4477333 27,39 C27,39.5522667 27.395169,40 27.8825991,40 L53.1174009,40 C53.604831,40 54,39.5522667 54,39 C54,38.4477333 53.604831,38 53.1174009,38 Z" id="Path"></path>
                </g>
            </g>
        </g>
    </g>
</svg>