<?xml version="1.0" encoding="UTF-8"?>
<svg width="1795px" height="311px" viewBox="0 0 1795 311" version="1.1" xmlns="http://www.w3.org/2000/svg" xmlns:xlink="http://www.w3.org/1999/xlink">
    <!-- Generator: Sketch 55.2 (78181) - https://sketchapp.com -->
    <title>logobeta</title>
    <desc>Created with Sketch.</desc>
    <g id="Page-1" stroke="none" stroke-width="1" fill="none" fill-rule="evenodd">
        <g id="logobeta" fill="#FFFFFF" fill-rule="nonzero">
            <path d="M1077.5,0 C1160.35,0 1227.5,69.47 1227.5,155.05 C1227.5,240.63 1160.34,310.05 1077.5,310.05 C994.66,310.05 927.5,240.68 927.5,155.05 C927.5,69.42 994.66,0 1077.5,0 Z M1312.5,5.09 L1487.5,220.23 L1487.6,5.26 L1510,5.26 L1510,305.18 L1477.5,305.18 L1302.5,90.03 L1302.5,305.26 L1280,305.18 L1280,5.09 L1312.5,5.09 Z M445,4.93 L557.5,305.09 L497.5,305.09 L466.57,222.59 L350.77,222.59 L320,305.09 L320,305 L295,305 L396.13,34.68 L407.24,5 L432,5 L445,4.93 Z M790,4.95 L790,57.59 L685,57.59 L685,275.65 L705,300.09 L705,305.09 L642.5,305.09 L642.5,300.09 L662.5,275.65 L662.5,57.59 L557.5,57.59 L557.5,4.95 L790,4.95 Z M71.45,4.96 L227.5,197.59 L227.5,34.53 L207.5,10.09 L207.5,5.09 L270,5.09 L270,10.09 L250,34.53 L250,305.09 L235,305.09 L43.02,67.7 L42.5,67 L42.5,275.65 L62.5,300.09 L62.5,305.09 L0,305.09 L0,300.09 L20,275.65 L20,36.87 L0,10.09 L0,5.09 L71.45,4.96 Z M872.5,5.09 L872.5,305.01 L850,305.01 L850,5.09 L872.5,5.09 Z M1167.64,121.4 C1141.83,52.32 1080.52,11.44 1030.76,30 C981,48.56 961.56,119.65 987.37,188.73 C1013.18,257.81 1074.46,298.73 1124.25,280.13 C1174,261.53 1193.45,190.48 1167.64,121.4 Z M408.53,67.76 L360.1,197.59 L457.2,197.59 L408.53,67.76 Z M1795,5.09 L1795,105.09 L1560,105.09 L1560,5.09 L1795,5.09 Z M1601,25.05 L1580,25.05 L1580,85.05 L1603.27,85.05 C1610.07667,84.99 1615.32,83.48 1619,80.52 C1622.7,77.5533333 1624.55,73.1733333 1624.55,67.38 C1624.64883,64.3105992 1623.71578,61.2966748 1621.9,58.82 C1620.09769,56.462659 1617.52458,54.8133196 1614.63,54.16 C1617.1946,53.2223549 1619.39884,51.5009526 1620.93,49.24 C1622.4605,46.9454348 1623.25259,44.2376586 1623.2,41.48 C1623.2,36.1 1621.31667,32.0166667 1617.55,29.23 C1613.78333,26.4433333 1608.26667,25.05 1601,25.05 L1601,25.05 Z M1672.69,25.05 L1632.58,25.05 L1632.58,85.05 L1672.77,85.05 L1672.84,75.12 L1645,75.12 L1645,59.06 L1668.72,59.06 L1668.72,49.39 L1645,49.39 L1645,35.05 L1672.69,35.05 L1672.69,25.05 Z M1725.54,25.1 L1676.7,25.1 L1676.7,35.1 L1694.82,35.1 L1694.82,85.05 L1707.17,85.05 L1707.17,35.1 L1725.54,35.1 L1725.54,25.1 Z M1752.52,25.05 L1741.07,25.05 L1718.75,85.05 L1731.89,85.05 L1736.01,72.69 L1757.67,72.69 L1761.82,85.05 L1774.96,85.05 L1752.52,25.05 Z M1603.68,58.94 C1609.36,59.02 1612.2,61.8066667 1612.2,67.3 C1612.30856,69.4881235 1611.40515,71.6046811 1609.75,73.04 C1607.80398,74.5296953 1605.38627,75.268146 1602.94,75.12 L1592.35,75.12 L1592.35,58.94 L1603.68,58.94 Z M1746.83,40.24 L1754.37,62.69 L1739.38,62.69 L1746.83,40.24 Z M1601,35.1 C1604.4,35.1 1606.9,35.69 1608.47,36.89 C1610.04,38.09 1610.84,40 1610.84,42.76 C1610.84,47.62 1607.72333,50.1033333 1601.49,50.21 L1592.35,50.21 L1592.35,35.1 L1601,35.1 Z" id="Rectangle-2"></path>
        </g>
    </g>
</svg>