<?xml version="1.0" encoding="UTF-8"?>
<svg width="437px" height="91px" viewBox="0 0 437 91" version="1.1" xmlns="http://www.w3.org/2000/svg" xmlns:xlink="http://www.w3.org/1999/xlink">
    <!-- Generator: Sketch 55.2 (78181) - https://sketchapp.com -->
    <title>logo</title>
    <desc>Created with Sketch.</desc>
    <g id="Page-13" stroke="none" stroke-width="1" fill="none" fill-rule="evenodd">
        <g id="Brandbook-setup-20200604" transform="translate(-725.000000, -544.000000)" fill="#FFFFFF">
            <g id="white" transform="translate(-0.403800, 510.000000)">
                <g id="logo" transform="translate(725.823200, 34.536378)">
                    <path d="M128.6477,1.4252 L124.8777,1.4312 L117.7317,1.4372 L114.5197,10.0262 L85.2827,88.1742 L92.5107,88.1742 L92.5107,88.2002 L101.4057,64.3502 L134.8837,64.3502 L143.8247,88.2002 L161.1707,88.2002 L128.6477,1.4252 Z M104.1037,57.1222 L118.1047,19.5892 L132.1747,57.1222 L104.1037,57.1222 Z" id="Fill-308-Copy"></path>
                    <polygon id="Fill-309-Copy" points="245.7317 1.4715 245.7317 88.1775 252.2367 88.1775 252.2367 1.4715"></polygon>
                    <polygon id="Fill-310-Copy" points="198.0308 16.649 198.0308 79.689 203.8128 86.755 203.8128 88.2 185.7438 88.2 185.7438 86.755 191.5258 79.689 191.5258 16.649 161.1708 16.649 161.1708 1.431 228.3858 1.431 228.3858 16.649"></polygon>
                    <polygon id="Fill-311-Copy" points="72.274 88.2004 72.274 9.9824 78.056 2.9174 78.056 1.4714 59.987 1.4714 59.987 2.9174 65.769 9.9824 65.769 57.1224 20.656 1.4344 0 1.4714 0 2.9174 5.782 10.6594 5.782 79.6894 0 86.7554 0 88.2004 18.068 88.2004 18.068 86.7554 12.286 79.6894 12.286 19.3694 12.437 19.5714 67.938 88.2004"></polygon>
                    <polygon id="Fill-312-Copy" points="376.5478 26.027 427.1398 88.227 436.5358 88.227 436.5358 1.521 430.0578 1.521 430.0308 63.669 379.4388 1.472 370.0428 1.472 370.0428 88.227 376.5478 88.25"></polygon>
                    <path d="M311.5011,-2.84217094e-14 C287.5521,-2.84217094e-14 268.1371,20.069 268.1371,44.824 C268.1371,69.577 287.5521,89.646 311.5011,89.646 C335.4531,89.646 354.8681,69.577 354.8681,44.824 C354.8681,20.069 335.4531,-2.84217094e-14 311.5011,-2.84217094e-14 M325.0161,80.985 C310.6221,86.362 292.9061,74.532 285.4451,54.561 C277.9831,34.587 283.5971,14.039 297.9891,8.661 C312.3801,3.284 330.0991,15.114 337.5601,35.085 C345.0221,55.058 339.4051,75.607 325.0161,80.985" id="Fill-313-Copy"></path>
                </g>
            </g>
        </g>
    </g>
</svg>