<?xml version="1.0" encoding="UTF-8"?>
<svg width="117px" height="117px" viewBox="0 0 117 117" version="1.1" xmlns="http://www.w3.org/2000/svg" xmlns:xlink="http://www.w3.org/1999/xlink">
    <!-- Generator: Sketch 55.2 (78181) - https://sketchapp.com -->
    <title>org</title>
    <desc>Created with Sketch.</desc>
    <g id="Page-24" stroke="none" stroke-width="1" fill="none" fill-rule="evenodd">
        <g id="Brandbook-setup-20200604" transform="translate(-976.000000, -669.000000)">
            <g id="org" transform="translate(976.554400, 669.800600)">
                <rect id="Rectangle" fill="#E8E8E3" x="0" y="0" width="116" height="116"></rect>
                <g id="company" transform="translate(28.445600, 21.199400)" fill="#A4A4A1" fill-rule="nonzero">
                    <path d="M13.571521,6 L8.42865046,6 L8.42865046,17.0557169 L0,17.0557169 L0,72 L22,72 L22,17.0557169 L13.571521,17.0557169 L13.571521,6 Z M14.9655817,59.7094972 L7.03441827,59.7094972 L7.03441827,54.7932961 L14.9657532,54.7932961 L14.9657532,59.7094972 L14.9655817,59.7094972 Z M14.9655817,49.877095 L7.03441827,49.877095 L7.03441827,44.9608939 L14.9657532,44.9608939 L14.9657532,49.877095 L14.9655817,49.877095 Z M14.9655817,40.0446927 L7.03441827,40.0446927 L7.03441827,35.1284916 L14.9657532,35.1284916 L14.9657532,40.0446927 L14.9655817,40.0446927 Z M14.9655817,25.2960894 L14.9655817,30.2122905 L7.03441827,30.2122905 L7.03441827,25.2960894 L14.9655817,25.2960894 Z" id="Shape"></path>
                    <polygon id="Path" points="40 65 45 65 45 72 40 72"></polygon>
                    <path d="M27,72 L35.6280115,72 L35.6280115,59.7999187 L50.3719885,59.7999187 L50.3719885,72 L59,72 L59,0 L27,7.47523383 L27,72 Z M45.4573295,15.8794632 L53.0367166,15.8794632 L53.0367166,20.7594957 L45.4573295,20.7594957 L45.4573295,15.8794632 Z M45.4573295,25.6396909 L53.0367166,25.6396909 L53.0367166,30.5197235 L45.4573295,30.5197235 L45.4573295,25.6396909 Z M45.4573295,35.399756 L53.0367166,35.399756 L53.0367166,40.2797885 L45.4573295,40.2797885 L45.4573295,35.399756 Z M45.4573295,45.1598211 L53.0367166,45.1598211 L53.0367166,50.0398536 L45.4573295,50.0398536 L45.4573295,45.1598211 Z M32.9632834,15.8794632 L40.5426705,15.8794632 L40.5426705,20.7594957 L32.9632834,20.7594957 L32.9632834,15.8794632 Z M32.9632834,25.6396909 L40.5426705,25.6396909 L40.5426705,30.5197235 L32.9632834,30.5197235 L32.9632834,25.6396909 Z M32.9632834,35.399756 L40.5426705,35.399756 L40.5426705,40.2797885 L32.9632834,40.2797885 L32.9632834,35.399756 Z M32.9632834,45.1598211 L40.5426705,45.1598211 L40.5426705,50.0398536 L32.9632834,50.0398536 L32.9632834,45.1598211 Z" id="Shape"></path>
                </g>
            </g>
        </g>
    </g>
</svg>