<?xml version="1.0" encoding="UTF-8"?>
<svg width="117px" height="117px" viewBox="0 0 117 117" version="1.1" xmlns="http://www.w3.org/2000/svg" xmlns:xlink="http://www.w3.org/1999/xlink">
    <!-- Generator: Sketch 55.2 (78181) - https://sketchapp.com -->
    <title>process</title>
    <desc>Created with Sketch.</desc>
    <g id="Page-24" stroke="none" stroke-width="1" fill="none" fill-rule="evenodd">
        <g id="Brandbook-setup-20200604" transform="translate(-976.000000, -669.000000)">
            <g id="process" transform="translate(976.554400, 669.800600)">
                <rect id="Rectangle" fill="#E8E8E3" x="0" y="0" width="116" height="116"></rect>
                <g transform="translate(20.445600, 22.199400)" fill="#9B9B99" fill-rule="nonzero" id="Shape">
                    <path d="M59.0083333,8.56896552 L49.8833333,8.56896552 L49.8833333,0 L23.1166667,0 L23.1166667,19.5862069 L49.8833333,19.5862069 L49.8833333,11.0172414 L59.0083333,11.0172414 C65.381574,11.0172414 70.5666667,16.2341745 70.5666667,22.6465517 C70.5666667,25.7457507 69.3618868,28.6644383 67.1756828,30.864055 C64.9882987,33.0642716 62.0880208,34.2758621 59.0083333,34.2758621 L50.3395833,34.2758621 L53.5333333,25.7068966 L26.7666667,25.7068966 L23.5729167,34.2758621 L13.9916667,34.2758621 C6.27700233,34.2758621 0,40.5908102 0,48.3534483 C0,52.1071571 1.45785867,55.6403007 4.1038775,58.301956 C6.7510765,60.9648233 10.2620602,62.4310345 13.9916667,62.4310345 L23.1166667,62.4310345 L23.1166667,71 L49.8833333,71 L49.8833333,62.4310345 L54.8467615,62.4310345 C55.438536,66.582074 58.9772962,69.7758621 63.2666667,69.7758621 C67.9702635,69.7758621 71.7833333,65.9393771 71.7833333,61.2068966 C71.7833333,56.4743426 67.9702635,52.637931 63.2666667,52.637931 C58.9772962,52.637931 55.438536,55.8316457 54.8467615,59.9827586 L49.8833333,59.9827586 L49.8833333,51.4137931 L23.1166667,51.4137931 L23.1166667,59.9827586 L13.9916667,59.9827586 C10.9119792,59.9827586 8.01170133,58.7711681 5.82431717,56.5709516 C3.63811317,54.3713348 2.43333333,51.4526472 2.43333333,48.3534483 C2.43333333,41.941071 7.618426,36.7241379 13.9916667,36.7241379 L22.6604167,36.7241379 L19.4666667,45.2931034 L46.2333333,45.2931034 L49.4270833,36.7241379 L59.0083333,36.7241379 C62.7379398,36.7241379 66.2489235,35.2579267 68.8961225,32.5950595 C71.5421413,29.9334041 73,26.4002605 73,22.6465517 C73,14.8839136 66.7229977,8.56896552 59.0083333,8.56896552 Z M46,16 L27,16 L27,14 L46,14 L46,16 Z M46,11 L27,11 L27,9 L46,9 L46,11 Z M46,6 L27,6 L27,4 L46,4 L46,6 Z M60.7165413,60.2871743 L62.2860902,61.7657982 L66.2834587,58 L68,59.6171009 L62.2860902,65 L59,61.9042752 L60.7165413,60.2871743 Z M27,55 L46,55 L46,57 L27,57 L27,55 Z M27,60 L46,60 L46,62 L27,62 L27,60 Z M27,65 L46,65 L46,67 L27,67 L27,65 Z M43,41 L26,41 L26,39 L43,39 L43,41 Z M45,37 L28,37 L28,35 L45,35 L45,37 Z M47,32 L30,32 L30,30 L47,30 L47,32 Z"></path>
                </g>
            </g>
        </g>
    </g>
</svg>