<?xml version="1.0" standalone="no"?>
<!DOCTYPE svg PUBLIC "-//W3C//DTD SVG 20010904//EN"
 "http://www.w3.org/TR/2001/REC-SVG-20010904/DTD/svg10.dtd">
<svg version="1.0" xmlns="http://www.w3.org/2000/svg"
 width="88.000000pt" height="88.000000pt" viewBox="0 0 88.000000 88.000000"
 preserveAspectRatio="xMidYMid meet">
<metadata>
Created by potrace 1.11, written by Peter Selinger 2001-2013
</metadata>
<g transform="translate(0.000000,88.000000) scale(0.100000,-0.100000)"
fill="#000000" stroke="none">
<path d="M55 872 c-2 -3 9 -24 25 -48 l30 -43 0 -346 0 -347 -31 -35 c-16 -19
-28 -38 -25 -41 7 -6 177 -4 183 2 3 2 -10 20 -28 40 l-31 36 0 283 c0 155 1
290 1 301 1 12 22 -8 63 -60 35 -44 65 -81 68 -84 4 -3 100 -121 214 -262 162
-203 212 -258 230 -258 l23 0 1 368 c0 202 1 378 1 392 1 14 14 41 31 60 16
19 27 36 25 39 -8 7 -176 8 -180 1 -2 -4 9 -23 26 -43 l29 -36 -2 -232 -3
-231 -209 258 c-115 143 -215 266 -223 274 -9 10 -39 14 -113 15 -56 0 -103
-1 -105 -3z"/>
</g>
</svg>
