<?xml version="1.0" encoding="UTF-8"?>
<svg width="116px" height="117px" viewBox="0 0 116 117" version="1.1" xmlns="http://www.w3.org/2000/svg" xmlns:xlink="http://www.w3.org/1999/xlink">
    <!-- Generator: Sketch 55.2 (78181) - https://sketchapp.com -->
    <title>user-light</title>
    <desc>Created with Sketch.</desc>
    <g id="Page-24" stroke="none" stroke-width="1" fill="none" fill-rule="evenodd">
        <g id="Brandbook-setup-20200604" transform="translate(-846.000000, -669.000000)">
            <g id="user-light" transform="translate(846.554400, 669.800600)">
                <path d="M57.698,115.396 C89.564,115.396 115.396,89.564 115.396,57.699 C115.396,25.832 89.564,-2.13162821e-14 57.698,-2.13162821e-14 C25.832,-2.13162821e-14 4.26325641e-14,25.832 4.26325641e-14,57.699 C4.26325641e-14,89.564 25.832,115.396 57.698,115.396" id="Fill-1673-Copy" fill="#E8E8E3"></path>
                <g id="user" transform="translate(24.445600, 23.199400)" fill="#A4A4A1">
                    <path d="M34.499439,41 C31.8864225,40.8757666 29.2153635,40.6631894 26.6769731,39.7107333 C24.1407937,38.8101791 21.7372829,37.3983355 19.6781573,35.5375951 C15.5151306,31.855869 12.9584982,26.203525 13.0005099,20.5003834 C12.9596038,14.7911681 15.599154,9.16864008 19.7699197,5.54765034 C23.9169157,1.8731022 29.2474251,-0.0163498988 34.499439,0.000106579238 C39.7525585,-0.0130370079 45.0769873,1.88414517 49.2179026,5.55814116 C53.3859044,9.17526586 56.0309824,14.7906159 55.9994737,20.5003834 C56.0420381,26.2018686 53.500331,31.8641512 49.3273541,35.5436687 C47.2660174,37.4044091 44.8602954,38.8145963 42.3230105,39.713494 C39.7835145,40.6648459 37.1124555,40.8752144 34.499439,41 M34.499439,39.047603 C39.3009328,39.1116522 43.6541177,36.2631182 46.2511035,32.6978954 C48.8912064,29.0653106 50.1034648,24.7684911 50.1371847,20.5003834 C50.1145205,16.2400057 49.005633,11.8962536 46.360555,8.20127594 C43.7773889,4.5107155 39.2677657,1.89463599 34.499439,1.95316373 C29.7300067,1.89794888 25.2264642,4.52175847 22.6493788,8.21231891 C20.0070646,11.9034315 18.8926493,16.2394535 18.8611405,20.5003834 C18.8937549,24.7673868 20.091088,29.0730407 22.7411411,32.7039691 C25.3425492,36.2691918 29.698498,39.1111 34.499439,39.047603" id="Fill-3874"></path>
                    <path d="M60.8117916,49.1748379 C53.3870386,42.5025817 43.6590003,38.9824161 33.9964243,39 C24.3354987,38.9813124 14.6008591,42.4904413 7.17060503,49.164353 C4.36782539,51.6867981 1.93031477,54.6667156 0,57.9733205 C0.975884413,59.7358866 2.10029689,61.3996739 3.32757881,62.9812376 C4.83706406,58.9859406 7.03968029,55.2235188 9.93267698,51.9351245 C12.8927864,48.5832691 16.5702313,45.7937351 20.7042625,43.8821732 C24.8382937,41.964541 29.4102077,40.9927568 33.9964243,40.9535764 C38.5820909,40.9927568 43.1567554,41.9573671 47.2913367,43.8755511 C51.4292186,45.7810429 55.108864,48.5716805 58.0717238,51.923536 C60.9729721,55.2202077 63.1777887,58.9936664 64.6845235,63 C65.9068545,61.4267139 67.026316,59.7695486 68,58.0163638 C66.0647343,54.6981703 63.6239231,51.7055605 60.8117916,49.1748379" id="Fill-3875"></path>
                </g>
            </g>
        </g>
    </g>
</svg>