<?xml version="1.0" encoding="UTF-8"?>
<svg width="116px" height="117px" viewBox="0 0 116 117" version="1.1" xmlns="http://www.w3.org/2000/svg" xmlns:xlink="http://www.w3.org/1999/xlink">
    <!-- Generator: Sketch 55.2 (78181) - https://sketchapp.com -->
    <title>user</title>
    <desc>Created with Sketch.</desc>
    <g id="Page-24" stroke="none" stroke-width="1" fill="none" fill-rule="evenodd">
        <g id="Brandbook-setup-20200604" transform="translate(-976.000000, -669.000000)">
            <g id="user" transform="translate(976.554400, 669.800600)">
                <path d="M57.698,115.396 C89.564,115.396 115.396,89.564 115.396,57.699 C115.396,25.832 89.564,-2.13162821e-14 57.698,-2.13162821e-14 C25.832,-2.13162821e-14 4.26325641e-14,25.832 4.26325641e-14,57.699 C4.26325641e-14,89.564 25.832,115.396 57.698,115.396" id="Fill-1673" fill="#E8E8E3"></path>
                <g opacity="0.500395275" transform="translate(20.445600, 19.199400)" fill="#385293">
                    <path d="M37.9993738,46 C35.0825181,45.8606158 32.1008709,45.622114 29.2673188,44.5535019 C26.4362349,43.5431214 23.753246,41.9590976 21.4546873,39.8714322 C16.8075877,35.7407044 13.9536724,29.3990337 14.0005692,23.0003703 C13.9549066,16.5948926 16.9013812,10.2866741 21.5571197,6.22408967 C26.1863244,2.10141519 32.1366606,-0.0184634136 37.9993738,-8.88219077e-16 C43.8633211,-0.014746502 49.8068695,2.11380489 54.4292866,6.23585989 C59.0819398,10.2941079 62.034585,16.5942731 61.9994125,23.0003703 C62.0469263,29.3971752 59.2096718,35.7499967 54.551465,39.8782465 C52.250438,41.9659119 49.5649809,43.5480773 46.7326629,44.5565993 C43.8978766,45.6239724 40.9162294,45.8599963 37.9993738,46 M37.9993738,43.8095001 C43.3591808,43.8813604 48.21855,40.6854359 51.1175108,36.6854195 C54.0646025,32.6098259 55.4178212,27.7889915 55.455462,23.0003703 C55.4301624,18.220422 54.1923345,13.3469313 51.2396893,9.20133589 C48.356155,5.06069633 43.3221571,2.12557511 37.9993738,2.19124055 C32.6753564,2.12929202 27.6481461,5.07308604 24.7713996,9.21372559 C21.8218396,13.3549846 20.5778411,18.2198025 20.5426685,23.0003703 C20.5790752,27.7877525 21.9156331,32.6184986 24.873832,36.6922338 C27.7777293,40.6922502 32.6401838,43.8807409 37.9993738,43.8095001" id="Fill-3874"></path>
                    <path d="M67.9661201,55.4466926 C59.6678666,47.9404044 48.7953532,43.9802181 37.9960037,44 C27.1984985,43.9789765 16.3186073,47.9267464 8.01420563,55.4348971 C4.8816872,58.2726478 2.15741063,61.6250551 0,65.3449856 C1.09069434,67.3278724 2.34739065,69.1996331 3.71905868,70.9788923 C5.40613042,66.4841832 7.86787797,62.2514586 11.1012272,58.5520151 C14.4095848,54.7811777 18.5196703,51.642952 23.1400581,49.4924448 C27.7604459,47.3351086 32.8702321,46.2418514 37.9960037,46.1977734 C43.1211604,46.2418514 48.2340207,47.327038 52.8550233,49.484995 C57.4797149,51.6286732 61.5922597,54.7681406 64.9036914,58.538978 C68.1462629,62.2477337 70.6104698,66.4928746 72.2944674,71 C73.660602,69.2300531 74.9117649,67.3657422 76,65.3934092 C73.837056,61.6604416 71.1090905,58.2937556 67.9661201,55.4466926" id="Fill-3875"></path>
                </g>
            </g>
        </g>
    </g>
</svg>